<svg id="svg" fill="#fff" stroke="#000000" width="200px" height="200px" version="1.1" viewBox="144 144 512 512" xmlns="http://www.w3.org/2000/svg">
    <g id="IconSvg_bgCarrier" stroke-width="0"></g>
    <g id="IconSvg_tracerCarrier" stroke-linecap="round" stroke-linejoin="round" stroke="#CCCCCC"></g>
     <g id="IconSvg_iconCarrier">
      <g xmlns="http://www.w3.org/2000/svg">
  <path d="m442.54 417.35c-3.918-1.6797-7.8359-3.3594-11.195-4.4766 21.832-14.555 36.387-39.184 36.387-67.176 0-44.781-36.387-81.168-81.168-81.168s-81.168 36.387-81.168 81.168c0 27.988 14.555 53.18 36.387 67.176-49.266 17.91-85.094 65.492-85.094 121.47h21.832c0-59.336 48.141-108.04 108.04-108.04 16.234 0 31.906 3.3594 47.023 10.637zm-115.32-72.211c0-32.469 26.871-59.336 59.336-59.336 32.469 0 59.336 26.871 59.336 59.336 0 32.469-26.871 59.336-59.336 59.336-33.027 0-59.336-26.309-59.336-59.336z"></path>
  <path d="m486.21 422.39c-31.348 0-56.539 25.191-56.539 56.539 0 31.348 25.191 56.539 56.539 56.539 31.348 0 56.539-25.191 56.539-56.539 0.55859-31.348-25.191-56.539-56.539-56.539zm0 96.844c-22.391 0-40.305-17.914-40.305-40.305 0-22.391 17.914-40.305 40.305-40.305s40.305 17.914 40.305 40.305c0 22.391-17.914 40.305-40.305 40.305z"></path>
  <path d="m494.6 451.5h-16.234v19.59h-19.59v16.234h19.59v19.035h16.234v-19.035h19.035v-16.234h-19.035z"></path>
 </g>

      </g>
      </svg>
