<svg id="svg" fill="#fff" stroke="#000000" width="200px" height="200px" version="1.1" viewBox="144 144 512 512" xmlns="http://www.w3.org/2000/svg">
    <g id="IconSvg_bgCarrier" stroke-width="0"></g>
    <g id="IconSvg_tracerCarrier" stroke-linecap="round" stroke-linejoin="round" stroke="#CCCCCC"></g>
     <g id="IconSvg_iconCarrier">
      <g xmlns="http://www.w3.org/2000/svg">
  <path d="m522.57 167.77h-245.14c-18.031 0.019531-35.316 7.1953-48.07 19.945-12.75 12.75-19.922 30.039-19.941 48.07v328.42c0.019531 18.035 7.1914 35.32 19.941 48.07 12.754 12.754 30.039 19.926 48.07 19.945h245.14c18.031-0.019531 35.32-7.1914 48.07-19.945 12.75-12.75 19.922-30.035 19.945-48.07v-328.42c-0.023437-18.031-7.1953-35.32-19.945-48.07s-30.039-19.926-48.07-19.945zm44.398 396.43c-0.023438 11.77-4.707 23.051-13.027 31.375-8.3203 8.3203-19.602 13.004-31.371 13.023h-245.14c-11.766-0.019531-23.047-4.7031-31.371-13.023-8.3203-8.3242-13.004-19.605-13.027-31.375v-328.42c0.023438-11.77 4.707-23.051 13.027-31.371 8.3242-8.3242 19.605-13.008 31.371-13.027h245.14c11.77 0.019531 23.051 4.7031 31.371 13.027 8.3203 8.3203 13.004 19.602 13.027 31.371z"></path>
  <path d="m279.64 217.29h240.65c6.5195 0 11.809 6.5195 11.809 11.809v64.629c0 6.5195-5.2852 11.809-11.809 11.809h-240.65c-6.5195 0-11.809-6.5195-11.809-11.809v-64.629c0-6.5195 5.2852-11.809 11.809-11.809z"></path>
  <path d="m279.64 509.66h51.719c6.5195 0 11.809 6.5195 11.809 11.809v51.719c0 6.5195-5.2852 11.809-11.809 11.809h-51.719c-6.5195 0-11.809-6.5195-11.809-11.809v-51.719c0-6.5195 5.2852-11.809 11.809-11.809z"></path>
  <path d="m279.64 418.03h51.719c6.5195 0 11.809 6.5195 11.809 11.809v51.719c0 6.5195-5.2852 11.809-11.809 11.809h-51.719c-6.5195 0-11.809-6.5195-11.809-11.809v-51.719c0-6.5195 5.2852-11.809 11.809-11.809z"></path>
  <path d="m279.64 326.32h51.719c6.5195 0 11.809 6.5195 11.809 11.809v51.719c0 6.5195-5.2852 11.809-11.809 11.809h-51.719c-6.5195 0-11.809-6.5195-11.809-11.809v-51.719c0-6.5195 5.2852-11.809 11.809-11.809z"></path>
  <path d="m374.1 509.66h51.719c6.5195 0 11.809 6.5195 11.809 11.809v51.719c0 6.5195-5.2852 11.809-11.809 11.809h-51.719c-6.5195 0-11.809-6.5195-11.809-11.809v-51.719c0-6.5195 5.2852-11.809 11.809-11.809z"></path>
  <path d="m374.1 418.03h51.719c6.5195 0 11.809 6.5195 11.809 11.809v51.719c0 6.5195-5.2852 11.809-11.809 11.809h-51.719c-6.5195 0-11.809-6.5195-11.809-11.809v-51.719c0-6.5195 5.2852-11.809 11.809-11.809z"></path>
  <path d="m374.1 326.32h51.719c6.5195 0 11.809 6.5195 11.809 11.809v51.719c0 6.5195-5.2852 11.809-11.809 11.809h-51.719c-6.5195 0-11.809-6.5195-11.809-11.809v-51.719c0-6.5195 5.2852-11.809 11.809-11.809z"></path>
  <path d="m468.56 418.03h51.719c6.5195 0 11.809 6.5195 11.809 11.809v143.35c0 6.5195-5.2852 11.809-11.809 11.809h-51.719c-6.5195 0-11.809-6.5195-11.809-11.809v-143.35c0-6.5195 5.2852-11.809 11.809-11.809z"></path>
  <path d="m468.56 326.32h51.719c6.5195 0 11.809 6.5195 11.809 11.809v51.719c0 6.5195-5.2852 11.809-11.809 11.809h-51.719c-6.5195 0-11.809-6.5195-11.809-11.809v-51.719c0-6.5195 5.2852-11.809 11.809-11.809z"></path>
 </g>

      </g>
      </svg>
