<svg width="100%" height="100%" fill="none" viewBox="0 0 22.6 24" class="h-auto w-full max-w-full" xmlns="http://www.w3.org/2000/svg"><title>Result University</title><g fill="#fff"><path fill-rule="evenodd" clip-rule="evenodd" d="M0 2.53C0 1.408.894.5 1.996.5h18.628c1.102 0 1.996.909 1.996 2.03v18.94c0 1.121-.894 2.03-1.996 2.03H1.996C.894 23.5 0 22.591 0 21.47V2.53zm4.324.405c-1.102 0-1.995.909-1.995 2.03V19.17c0 1.12.893 2.029 1.995 2.029h13.972c1.102 0 1.995-.909 1.995-2.03V4.966c0-1.121-.893-2.03-1.995-2.03H4.324zm-.066.812c-.551 0-.998.454-.998 1.015v14.68c0 .56.447 1.014.998 1.014h14.237c.551 0 .998-.454.998-1.015V4.761c0-.56-.447-1.014-.998-1.014H4.258zm3.545 6.84 1.5 2.63h1.586L9.24 10.36a2.49 2.49 0 0 0 1.044-.898c.262-.404.394-.84.394-1.31a2.44 2.44 0 0 0-.724-1.775 2.372 2.372 0 0 0-1.757-.736h-2.98v7.577h1.469v-2.63h1.118zm-1.118-1.31v-2.24h1.511c.277 0 .515.109.714.325.198.217.298.48.298.79 0 .31-.1.577-.298.801a.935.935 0 0 1-.714.325H6.685z"></path></g></svg>
